<svg width="24" height="25" viewBox="0 0 24 25" fill="none" xmlns="http://www.w3.org/2000/svg">
<path d="M21.707 9.24998C21.707 8.83577 21.3713 8.49998 20.957 8.49998C20.5428 8.49998 20.207 8.83577 20.207 9.24998H21.707ZM3.62117 9.24998C3.62117 8.83577 3.28539 8.49998 2.87117 8.49998C2.45696 8.49998 2.12117 8.83577 2.12117 9.24998H3.62117ZM15.0317 23.1506L14.856 22.4214L15.0317 23.1506ZM8.79652 23.1506L8.97218 22.4214L8.79652 23.1506ZM15.4227 3.29812L14.8853 3.82132L15.4227 3.29812ZM22.5409 11.6843C22.8298 11.981 23.3047 11.9874 23.6014 11.6984C23.8982 11.4095 23.9046 10.9347 23.6156 10.6379L22.5409 11.6843ZM8.40558 3.29812L8.94295 3.82132V3.82132L8.40558 3.29812ZM0.212631 10.6379C-0.0763224 10.9347 -0.0699772 11.4095 0.226803 11.6984C0.523584 11.9874 0.998415 11.981 1.28737 11.6843L0.212631 10.6379ZM9.08392 20.1311L8.34631 19.9953H8.34631L9.08392 20.1311ZM9.10791 20.0008L9.84552 20.1365V20.1365L9.10791 20.0008ZM14.7203 20.0008L13.9827 20.1365L13.9827 20.1365L14.7203 20.0008ZM14.7443 20.1311L15.4819 19.9953V19.9953L14.7443 20.1311ZM14.3848 22.9542L13.7052 22.6371V22.6371L14.3848 22.9542ZM13.5603 22.9475C13.3852 23.3228 13.5475 23.7691 13.9228 23.9443C14.2982 24.1194 14.7445 23.9571 14.9196 23.5818L13.5603 22.9475ZM9.44341 22.9542L8.76376 23.2713L8.76376 23.2714L9.44341 22.9542ZM8.90862 23.5818C9.08378 23.9571 9.53006 24.1194 9.90541 23.9443C10.2808 23.7691 10.4431 23.3228 10.2679 22.9475L8.90862 23.5818ZM11.1215 17.7556L10.9173 17.034L10.9173 17.034L11.1215 17.7556ZM12.7067 17.7556L12.9109 17.034L12.9109 17.034L12.7067 17.7556ZM20.207 9.24998V15.472H21.707V9.24998H20.207ZM3.62117 15.472V9.24998H2.12117V15.472H3.62117ZM14.856 22.4214C12.9209 22.8876 10.9073 22.8876 8.97218 22.4214L8.62085 23.8797C10.7869 24.4015 13.0413 24.4015 15.2074 23.8797L14.856 22.4214ZM8.97218 22.4214C5.85014 21.6693 3.62117 18.8002 3.62117 15.472H2.12117C2.12117 19.4678 4.80049 22.9593 8.62085 23.8797L8.97218 22.4214ZM15.2074 23.8797C19.0277 22.9593 21.707 19.4678 21.707 15.472H20.207C20.207 18.8002 17.9781 21.6693 14.856 22.4214L15.2074 23.8797ZM14.8853 3.82132L22.5409 11.6843L23.6156 10.6379L15.96 2.77492L14.8853 3.82132ZM7.86821 2.77492L0.212631 10.6379L1.28737 11.6843L8.94295 3.82132L7.86821 2.77492ZM15.96 2.77492C15.148 1.94087 14.4872 1.25986 13.8961 0.796697C13.2887 0.320661 12.6641 0 11.9141 0V1.5C12.1918 1.5 12.4945 1.60403 12.9709 1.97736C13.4638 2.36358 14.0434 2.95662 14.8853 3.82132L15.96 2.77492ZM8.94295 3.82132C9.78484 2.95662 10.3645 2.36358 10.8573 1.97736C11.3337 1.60403 11.6365 1.5 11.9141 1.5V0C11.1642 0 10.5396 0.32066 9.93211 0.796697C9.34107 1.25986 8.68026 1.94087 7.86821 2.77492L8.94295 3.82132ZM9.82153 20.2669L9.84552 20.1365L8.3703 19.865L8.34631 19.9953L9.82153 20.2669ZM13.9827 20.1365L14.0067 20.2669L15.4819 19.9953L15.4579 19.865L13.9827 20.1365ZM13.7052 22.6371L13.5603 22.9475L14.9196 23.5818L15.0645 23.2713L13.7052 22.6371ZM8.76376 23.2714L8.90862 23.5818L10.2679 22.9475L10.1231 22.6371L8.76376 23.2714ZM14.0067 20.2669C14.1546 21.0705 14.0485 21.9013 13.7052 22.6371L15.0645 23.2713C15.5402 22.2518 15.6861 21.1043 15.4819 19.9953L14.0067 20.2669ZM8.34631 19.9953C8.14219 21.1043 8.288 22.2518 8.76376 23.2713L10.1231 22.6371C9.7797 21.9013 9.67361 21.0705 9.82153 20.2669L8.34631 19.9953ZM11.3258 18.4773C11.711 18.3683 12.1173 18.3683 12.5025 18.4773L12.9109 17.034C12.2587 16.8494 11.5696 16.8494 10.9173 17.034L11.3258 18.4773ZM15.4579 19.865C15.2087 18.511 14.2275 17.4065 12.9109 17.034L12.5025 18.4773C13.2526 18.6896 13.8337 19.3271 13.9827 20.1365L15.4579 19.865ZM9.84552 20.1365C9.9945 19.3271 10.5757 18.6896 11.3258 18.4773L10.9173 17.034C9.60075 17.4065 8.61951 18.511 8.3703 19.865L9.84552 20.1365Z" fill="#7F7F7F"/>
</svg>
