<svg width="30" height="31" viewBox="0 0 30 31" fill="none" xmlns="http://www.w3.org/2000/svg">
<g clip-path="url(#clip0_1318_1803)">
<path d="M4.34121 13.4225C5.04215 10.9367 7.08536 9.05659 9.62426 8.56117L10.9662 8.29931C13.6302 7.77949 16.3698 7.77949 19.0338 8.29931L20.3757 8.56117C22.9146 9.05659 24.9579 10.9367 25.6588 13.4225L25.775 13.8348C26.4113 16.0911 26.4068 18.4945 25.7706 20.7508C25.0046 23.4676 22.7659 25.5424 19.9911 26.0839C16.6949 26.7271 13.3051 26.7271 10.0089 26.0839C7.23412 25.5424 4.99543 23.4676 4.22937 20.7508C3.59315 18.4945 3.58875 16.0911 4.22497 13.8348L4.34121 13.4225Z" fill="#F25092"/>
<path d="M13.5875 3.98075L13.3938 3.2562H13.3938L13.5875 3.98075ZM16.4125 3.98075L16.2188 4.7053V4.7053L16.4125 3.98075ZM4.22937 20.7508L4.95122 20.5473L4.22937 20.7508ZM4.22497 13.8348L4.94682 14.0383H4.94682L4.22497 13.8348ZM25.775 13.8348L26.4969 13.6312V13.6312L25.775 13.8348ZM25.7706 20.7508L26.4925 20.9544L25.7706 20.7508ZM19.9911 26.0839L19.8475 25.3478L19.9911 26.0839ZM10.0089 26.0839L10.1525 25.3478L10.0089 26.0839ZM10.9662 8.29931L11.1099 9.03543L10.9662 8.29931ZM19.0338 8.29931L19.1774 7.5632L19.0338 8.29931ZM20.3757 8.56117L20.2321 9.29729L20.3757 8.56117ZM25.6588 13.4225L24.9369 13.6261V13.6261L25.6588 13.4225ZM9.62426 8.56117L9.48062 7.82505L9.62426 8.56117ZM4.34121 13.4225L3.61936 13.219H3.61936L4.34121 13.4225ZM13.7812 4.7053C14.5797 4.49181 15.4203 4.49181 16.2188 4.7053L16.6062 3.2562C15.5539 2.97484 14.446 2.97484 13.3938 3.2562L13.7812 4.7053ZM20.9713 8.93532C20.9713 6.27324 19.1801 3.94441 16.6062 3.2562L16.2188 4.7053C18.138 5.21847 19.4713 6.95402 19.4713 8.93532H20.9713ZM10.5287 8.93531C10.5287 6.95402 11.862 5.21847 13.7812 4.7053L13.3938 3.2562C10.8199 3.94441 9.02871 6.27323 9.02871 8.93531H10.5287ZM9.7679 9.29729L11.1099 9.03543L10.8226 7.5632L9.48062 7.82505L9.7679 9.29729ZM18.8901 9.03543L20.2321 9.29729L20.5194 7.82505L19.1774 7.5632L18.8901 9.03543ZM24.9369 13.6261L25.0532 14.0383L26.4969 13.6312L26.3806 13.219L24.9369 13.6261ZM4.94682 14.0383L5.06306 13.6261L3.61936 13.219L3.50312 13.6312L4.94682 14.0383ZM4.95122 20.5473C4.35227 18.4231 4.3484 16.1606 4.94682 14.0383L3.50312 13.6312C2.8291 16.0216 2.83404 18.5659 3.50752 20.9544L4.95122 20.5473ZM25.0532 14.0383C25.6516 16.1606 25.6477 18.4231 25.0488 20.5473L26.4925 20.9544C27.166 18.5659 27.1709 16.0216 26.4969 13.6312L25.0532 14.0383ZM19.8475 25.3478C16.6461 25.9724 13.3539 25.9724 10.1525 25.3478L9.86524 26.82C13.2563 27.4817 16.7437 27.4817 20.1348 26.82L19.8475 25.3478ZM11.1099 9.03543C13.679 8.53411 16.321 8.53411 18.8901 9.03543L19.1774 7.5632C16.4186 7.02486 13.5814 7.02486 10.8226 7.5632L11.1099 9.03543ZM10.1525 25.3478C7.65729 24.8609 5.64096 22.9934 4.95122 20.5473L3.50752 20.9544C4.34991 23.9418 6.81094 26.224 9.86524 26.82L10.1525 25.3478ZM20.1348 26.82C23.1891 26.224 25.6501 23.9418 26.4925 20.9544L25.0488 20.5473C24.359 22.9934 22.3427 24.8609 19.8475 25.3478L20.1348 26.82ZM20.2321 9.29729C22.4938 9.73861 24.313 11.4132 24.9369 13.6261L26.3806 13.219C25.6027 10.4602 23.3355 8.37457 20.5194 7.82505L20.2321 9.29729ZM9.48062 7.82505C6.66449 8.37457 4.39726 10.4602 3.61936 13.219L5.06306 13.6261C5.68704 11.4132 7.50624 9.73861 9.7679 9.29729L9.48062 7.82505ZM4.29448 14.7298C11.1968 17.3136 18.8032 17.3136 25.7055 14.7298L25.1796 13.325C18.6164 15.7819 11.3836 15.7819 4.82036 13.325L4.29448 14.7298Z" fill="#EF92B8"/>
<path d="M10 13.2831V17.7108" stroke="#EF92B8" stroke-width="1.5" stroke-linecap="round"/>
<path d="M20 13.2831V17.7108" stroke="#EF92B8" stroke-width="1.5" stroke-linecap="round"/>
</g>
<defs>
<clipPath id="clip0_1318_1803">
<rect width="30" height="30.3614" fill="white"/>
</clipPath>
</defs>
</svg>
